<svg xmlns="http://www.w3.org/2000/svg" viewBox="0 0 25 25"><defs><style>.cls-1{fill:#04436a;}.cls-2{fill:#fdfaf5;}.cls-3{fill:none;stroke:#fdfaf5;stroke-miterlimit:10;stroke-width:0.5px;}</style></defs><g id="Layer_1" data-name="Layer 1"><circle class="cls-1" cx="12.5" cy="12.5" r="8.03"/><path class="cls-2" d="M12.5,7A5.53,5.53,0,1,1,7,12.5,5.54,5.54,0,0,1,12.5,7m0-2.5a8,8,0,1,0,8,8,8,8,0,0,0-8-8Z"/><path class="cls-1" d="M12.5,6A6.53,6.53,0,1,1,6,12.5,6.54,6.54,0,0,1,12.5,6m0-1.5a8,8,0,1,0,8,8,8,8,0,0,0-8-8Z"/><line class="cls-3" x1="6.42" y1="12.5" x2="18.58" y2="12.5"/><line class="cls-3" x1="7.11" y1="9.59" x2="17.87" y2="9.59"/><line class="cls-3" x1="6.89" y1="15.41" x2="17.7" y2="15.41"/></g></svg>